<?xml version="1.0" encoding="UTF-8" standalone="no"?>
<!DOCTYPE svg PUBLIC "-//W3C//DTD SVG 1.1//EN" "http://www.w3.org/Graphics/SVG/1.1/DTD/svg11.dtd">
<svg width="100%" height="100%" viewBox="0 0 24 24" version="1.1" xmlns="http://www.w3.org/2000/svg" xmlns:xlink="http://www.w3.org/1999/xlink" xml:space="preserve" xmlns:serif="http://www.serif.com/" style="fill-rule:evenodd;clip-rule:evenodd;stroke-linejoin:round;stroke-miterlimit:2;">
    <path d="M24,18L24,19L0,19L0,18L24,18ZM24,12L24,13L0,13L0,12L24,12ZM24,6L24,7L0,7L0,6L24,6Z" style="fill:rgb(16,64,226);"/>
    <path d="M24,19L0,19L0,18L24,18L24,19ZM24,13L0,13L0,12L24,12L24,13ZM24,7L0,7L0,6L24,6L24,7Z" style="fill:rgb(255,251,248);"/>
</svg>
